PathFileType  4	(X/Y/Z) C:\Users\wagnerel85475\Documents\Thesis\opencap-core\Data\3375ffbc-daeb-4a43-b4f7-ac9899cd4c71\MarkerData\PreAugmentation
DataRate	CameraRate	NumFrames	NumMarkers	Units	OrigDataRate	OrigDataStartFrame	OrigNumFrames
60.0	60.0	17	20	m	60.0	1	403
Frame#	Time	Neck			RShoulder			RElbow			RWrist			LShoulder			LElbow			LWrist			midHip			RHip			RKnee			RAnkle			LHip			LKnee			LAnkle			LBigToe			LSmallToe			LHeel			RBigToe			RSmallToe			RHeel			
		X1	Y1	Z1	X2	Y2	Z2	X3	Y3	Z3	X4	Y4	Z4	X5	Y5	Z5	X6	Y6	Z6	X7	Y7	Z7	X8	Y8	Z8	X9	Y9	Z9	X10	Y10	Z10	X11	Y11	Z11	X12	Y12	Z12	X13	Y13	Z13	X14	Y14	Z14	X15	Y15	Z15	X16	Y16	Z16	X17	Y17	Z17	X18	Y18	Z18	X19	Y19	Z19	X20	Y20	Z20	

1	0.0000000	0.2504900	1.8404700	-0.1369600	0.2450100	1.8008800	0.0519000	0.1765100	1.5114800	0.1088200	0.2689400	1.2215900	0.1452800	0.2303200	1.8599100	-0.3003000	0.3259800	2.0642300	-0.5439700	0.3139900	2.3432900	-0.4659200	0.2812600	1.2655900	-0.1420700	0.3148200	1.2658800	-0.0292400	0.2514800	0.7772900	-0.0668400	0.1942600	0.2765700	-0.0537500	0.3089900	1.2700700	-0.2528500	0.2313300	0.7871400	-0.2134100	0.1888300	0.2681900	-0.2310700	0.3645400	0.1907800	-0.2448100	0.3283700	0.2059300	-0.2936600	0.1181800	0.2148900	-0.2036800	0.3790500	0.1994000	-0.0525100	0.3169200	0.2015500	-0.0059200	0.1238900	0.2184900	-0.0779000
2	0.0166667	0.2499300	1.8405100	-0.1371700	0.2450100	1.8005900	0.0519600	0.1765100	1.5114400	0.1088300	0.2687600	1.2217200	0.1452800	0.2310200	1.8600800	-0.3003500	0.3257400	2.0647300	-0.5436200	0.3130000	2.3470000	-0.4660800	0.2810000	1.2652600	-0.1423900	0.3157400	1.2655100	-0.0290200	0.2510000	0.7773800	-0.0670400	0.1940600	0.2763800	-0.0537000	0.3095100	1.2659700	-0.2527300	0.2314500	0.7877900	-0.2133700	0.1886600	0.2678200	-0.2311500	0.3646400	0.1906000	-0.2447700	0.3285900	0.2059100	-0.2936200	0.1179700	0.2147800	-0.2037000	0.3792000	0.1994900	-0.0525500	0.3168200	0.2013000	-0.0058100	0.1239100	0.2184400	-0.0778800
3	0.0333333	0.2505200	1.8404900	-0.1369200	0.2450300	1.8009000	0.0519100	0.1766000	1.5114900	0.1088100	0.2688900	1.2216900	0.1452800	0.2303300	1.8599200	-0.3002600	0.3244500	2.0646200	-0.5358700	0.3129200	2.3474500	-0.4660500	0.2812700	1.2656000	-0.1420800	0.3147900	1.2658800	-0.0292700	0.2514700	0.7773100	-0.0668400	0.1942600	0.2765900	-0.0537400	0.3093700	1.2660400	-0.2527800	0.2313400	0.7871200	-0.2134100	0.1888500	0.2681900	-0.2310500	0.3645400	0.1906700	-0.2448000	0.3283200	0.2059000	-0.2936700	0.1181900	0.2148900	-0.2036500	0.3790400	0.1993400	-0.0525100	0.3169000	0.2015000	-0.0059200	0.1238500	0.2184900	-0.0779100
4	0.0500000	0.2499400	1.8404900	-0.1371900	0.2450300	1.8005700	0.0519400	0.1766700	1.5114100	0.1088000	0.2687700	1.2217300	0.1452700	0.2310300	1.8601700	-0.3003500	0.3245700	2.0686700	-0.5351600	0.3018000	2.3534200	-0.4628200	0.2809700	1.2653100	-0.1424100	0.3157600	1.2655600	-0.0290400	0.2510000	0.7774000	-0.0670400	0.1939900	0.2763700	-0.0537100	0.3091600	1.2700000	-0.2527900	0.2313900	0.7877700	-0.2133900	0.1886900	0.2678400	-0.2311300	0.3646400	0.1906500	-0.2447700	0.3285900	0.2059200	-0.2936200	0.1180000	0.2147800	-0.2036700	0.3792300	0.1994900	-0.0525400	0.3168100	0.2013100	-0.0058000	0.1238800	0.2184100	-0.0779100
5	0.0666667	0.2391900	1.8419000	-0.1408400	0.2449800	1.8009000	0.0518900	0.1765300	1.5114900	0.1088000	0.2689700	1.2216800	0.1453200	0.2294100	1.8641500	-0.3005400	0.3246700	2.0760000	-0.5353200	0.3024000	2.3574800	-0.4624500	0.2702400	1.2655900	-0.1460100	0.3147100	1.2659000	-0.0293000	0.2516300	0.7772500	-0.0667900	0.1943100	0.2765300	-0.0537300	0.3089100	1.2700300	-0.2528800	0.2312200	0.7869800	-0.2134700	0.1889600	0.2681600	-0.2310200	0.3745400	0.1926500	-0.2408300	0.3284300	0.2058100	-0.2936500	0.1184900	0.2189200	-0.2033400	0.3896200	0.2017700	-0.0489700	0.3280300	0.2040700	-0.0023600	0.1239300	0.2184600	-0.0778900
6	0.0833333	0.2384900	1.8420300	-0.1411900	0.2450000	1.8005800	0.0519200	0.1765400	1.5114400	0.1087900	0.2688700	1.2248600	0.1452500	0.2293700	1.8685600	-0.3011200	0.3243600	2.0763700	-0.5350400	0.3020300	2.3572300	-0.4622700	0.2809700	1.2652800	-0.1424400	0.3157400	1.2655000	-0.0290700	0.2509500	0.7808700	-0.0671400	0.1941000	0.2763900	-0.0537400	0.3091800	1.2699700	-0.2528000	0.2313100	0.7796200	-0.2133900	0.1895500	0.2721400	-0.2309000	0.3744800	0.1929600	-0.2407800	0.3284500	0.2094500	-0.2939900	0.1182600	0.2189100	-0.2034200	0.3898600	0.2019500	-0.0489900	0.3280200	0.2039200	-0.0022100	0.1239200	0.2184900	-0.0779000
7	0.1000000	0.2390400	1.8420200	-0.1409600	0.2449700	1.8009600	0.0518500	0.1769500	1.5148100	0.1088400	0.2690300	1.2248800	0.1452700	0.2286700	1.8683400	-0.3010200	0.3243700	2.0837100	-0.5351600	0.3018600	2.3576900	-0.4623500	0.2812200	1.2655800	-0.1420900	0.3146900	1.2658800	-0.0293000	0.2513500	0.7807400	-0.0669600	0.2051900	0.2789400	-0.0584600	0.3093200	1.2659900	-0.2528000	0.2311700	0.7788800	-0.2134500	0.1897900	0.2725100	-0.2308000	0.3645100	0.1906900	-0.2447600	0.3281400	0.2094200	-0.2940500	0.1185400	0.2190500	-0.2033800	0.3897000	0.2018100	-0.0489600	0.3281400	0.2041300	-0.0023400	0.1238700	0.2185400	-0.0779100
8	0.1166667	0.2384600	1.8420900	-0.1412200	0.2450600	1.8006700	0.0519100	0.1769600	1.5147100	0.1088300	0.2689400	1.2249100	0.1452800	0.2292900	1.8686100	-0.3011100	0.3239500	2.0919800	-0.5349000	0.3008600	2.3615000	-0.4628200	0.2809500	1.2652400	-0.1424500	0.3050500	1.2654300	-0.0326100	0.2510000	0.7808500	-0.0671400	0.1940500	0.2763700	-0.0537500	0.3095600	1.2659100	-0.2527200	0.2312800	0.7796000	-0.2133900	0.1887200	0.2679100	-0.2311400	0.3745700	0.1928200	-0.2407300	0.3285100	0.2094300	-0.2939500	0.1179200	0.2148900	-0.2122300	0.3898800	0.2019500	-0.0490000	0.3280000	0.2039100	-0.0022300	0.1238800	0.2185100	-0.0779100
9	0.1333333	0.2388800	1.8421400	-0.1410300	0.2450300	1.8009900	0.0518000	0.1768400	1.5148700	0.1088600	0.2691700	1.2249800	0.1453100	0.2277700	1.8723200	-0.3013600	0.3235600	2.0958000	-0.5354500	0.3010300	2.3620400	-0.4629300	0.2703200	1.2655500	-0.1460200	0.3146800	1.2659000	-0.0293100	0.2513800	0.7807600	-0.0669600	0.1943500	0.2766200	-0.0537800	0.3089800	1.2699200	-0.2529200	0.2313300	0.7824800	-0.2136000	0.1889200	0.2682300	-0.2310700	0.3744700	0.1928100	-0.2407900	0.3286300	0.2056400	-0.2944400	0.1181500	0.2149900	-0.2122100	0.3896700	0.2018000	-0.0489600	0.3280900	0.2041200	-0.0023500	0.1238300	0.2185900	-0.0779000
10	0.1500000	0.2383100	1.8422000	-0.1413100	0.2447000	1.8052300	0.0515600	0.1768500	1.5148100	0.1088900	0.2805100	1.2251900	0.1485300	0.2286500	1.8729000	-0.3015400	0.3236100	2.1000100	-0.5347500	0.3004600	2.3695100	-0.4627200	0.2700200	1.2652000	-0.1463800	0.3051100	1.2654200	-0.0326500	0.2508300	0.7808700	-0.0672000	0.2048700	0.2787100	-0.0584300	0.3095300	1.2658600	-0.2527400	0.2314200	0.7831700	-0.2135800	0.1887400	0.2678500	-0.2311400	0.3745300	0.1927800	-0.2406800	0.3288600	0.2056400	-0.2943200	0.1179400	0.2148700	-0.2122500	0.3899800	0.2019600	-0.0489700	0.3281000	0.2039300	-0.0022100	0.1239400	0.2185000	-0.0779200
11	0.1666667	0.2388800	1.8421900	-0.1410900	0.2450000	1.8010300	0.0517600	0.1767400	1.5149300	0.1089100	0.2806700	1.2252300	0.1485900	0.2278700	1.8726700	-0.3013500	0.3237700	2.0995200	-0.5349100	0.3006100	2.3699400	-0.4628000	0.2703500	1.2655800	-0.1460700	0.3040600	1.2658200	-0.0328800	0.2513200	0.7808100	-0.0669900	0.2052200	0.2789500	-0.0584700	0.3093700	1.2659300	-0.2529200	0.2313900	0.7824500	-0.2135800	0.1889000	0.2682000	-0.2310600	0.3743700	0.1928400	-0.2407500	0.3281400	0.2093900	-0.2939800	0.1182100	0.2149900	-0.2122200	0.3898000	0.2018400	-0.0489200	0.3282300	0.2041800	-0.0023200	0.1239300	0.2185400	-0.0779100
12	0.1833333	0.2383100	1.8422300	-0.1413200	0.2447900	1.8053600	0.0515600	0.1768500	1.5148500	0.1088900	0.2804900	1.2252400	0.1486400	0.2286600	1.8731100	-0.3015100	0.3232600	2.1077600	-0.5346500	0.2892500	2.3763800	-0.4595800	0.2696700	1.2693300	-0.1464500	0.3051200	1.2654700	-0.0326400	0.2509500	0.7808700	-0.0671700	0.2049000	0.2786700	-0.0584300	0.3091600	1.2698400	-0.2528500	0.2314500	0.7796700	-0.2133500	0.1887500	0.2678400	-0.2311300	0.3745000	0.1928200	-0.2407200	0.3288500	0.2056300	-0.2943200	0.1179700	0.2148500	-0.2122400	0.3901000	0.2019900	-0.0489400	0.3282000	0.2039500	-0.0021700	0.1240300	0.2184000	-0.0779200
13	0.2000000	0.2389000	1.8422400	-0.1411000	0.2446200	1.8056700	0.0515000	0.1763600	1.5195700	0.1087400	0.2709900	1.2250700	0.1535700	0.2283800	1.8767800	-0.3011500	0.3331600	2.1056100	-0.5304100	0.2900400	2.3727100	-0.4592100	0.2805700	1.2700200	-0.1505800	0.3245900	1.2705300	-0.0339900	0.2519200	0.7771600	-0.0667400	0.2052900	0.2789200	-0.0584500	0.3088800	1.2701000	-0.2611300	0.2314400	0.7825700	-0.2136500	0.1889300	0.2682600	-0.2310400	0.3645000	0.1905700	-0.2447700	0.3282900	0.2058600	-0.2935900	0.1299300	0.2216700	-0.2078100	0.3899600	0.2018500	-0.0488900	0.3285000	0.2009100	-0.0018800	0.1238700	0.2184700	-0.0778500
14	0.2166667	0.2383400	1.8422700	-0.1413700	0.2445800	1.8052100	0.0515300	0.1764900	1.5194000	0.1087700	0.2708600	1.2251400	0.1535600	0.2290300	1.8736000	-0.3015300	0.3220700	2.1119700	-0.5271200	0.2890800	2.3768900	-0.4595700	0.2802800	1.2696300	-0.1509700	0.3152700	1.2656400	-0.0372500	0.2513600	0.7772000	-0.0669500	0.2049700	0.2786700	-0.0584300	0.3092200	1.2699600	-0.2610400	0.2313500	0.7797500	-0.2133500	0.1887100	0.2679200	-0.2311100	0.3745700	0.1929000	-0.2407800	0.3286100	0.2059000	-0.2935000	0.1293400	0.2173900	-0.2081600	0.3901200	0.2019600	-0.0489200	0.3282800	0.2039500	-0.0021700	0.1240000	0.2184400	-0.0778800
15	0.2333333	0.2389000	1.8422500	-0.1411000	0.2445500	1.8056400	0.0514500	0.1763500	1.5195700	0.1087900	0.2711300	1.2250600	0.1536200	0.2281800	1.8732700	-0.3013300	0.3226400	2.1151300	-0.5268700	0.2888000	2.3813200	-0.4601700	0.2806200	1.2700000	-0.1506000	0.3247600	1.2661100	-0.0339100	0.2518300	0.7771200	-0.0667800	0.2053500	0.2789400	-0.0584700	0.3089900	1.2700700	-0.2612000	0.2313300	0.7824800	-0.2136300	0.1889200	0.2682900	-0.2310200	0.3645400	0.1906000	-0.2447800	0.3283300	0.2058900	-0.2935900	0.1296700	0.2175700	-0.2081000	0.3899000	0.2018400	-0.0488700	0.3284000	0.2042100	-0.0022800	0.1239500	0.2185000	-0.0778600
16	0.2500000	0.2383100	1.8423000	-0.1413800	0.2447900	1.8085600	0.0516800	0.1764900	1.5194300	0.1087900	0.2710200	1.2250200	0.1536800	0.2290600	1.8735500	-0.3015100	0.3223100	2.1156300	-0.5265400	0.2883600	2.3809000	-0.4600500	0.2803900	1.2696600	-0.1509600	0.3157600	1.2701500	-0.0291900	0.2514100	0.7771700	-0.0670100	0.2049700	0.2786600	-0.0584300	0.3093000	1.2700000	-0.2610700	0.2314600	0.7797700	-0.2133700	0.1887400	0.2680300	-0.2311100	0.3646400	0.1907000	-0.2447200	0.3285600	0.2059500	-0.2935300	0.1296800	0.2215000	-0.2078400	0.3901400	0.2020000	-0.0489300	0.3282900	0.2039600	-0.0021700	0.1240000	0.2184000	-0.0778800
17	0.2666667	0.2388500	1.8422500	-0.1411800	0.2444400	1.8055500	0.0514000	0.1764800	1.5194000	0.1088600	0.2832200	1.2251100	0.1570800	0.2285300	1.8768400	-0.3011500	0.3226300	2.1150600	-0.5266900	0.2886900	2.3815600	-0.4600900	0.2919000	1.2658600	-0.1465800	0.3150000	1.2660600	-0.0292800	0.2517300	0.7727100	-0.0669300	0.2053400	0.2790000	-0.0584500	0.3093100	1.2660700	-0.2611300	0.2313700	0.7869600	-0.2134200	0.1889100	0.2682700	-0.2310700	0.3643000	0.1907300	-0.2447700	0.3280500	0.2094200	-0.2940400	0.1297700	0.2175800	-0.2081200	0.3897900	0.2019000	-0.0489000	0.3283100	0.2042700	-0.0022900	0.1238600	0.2186500	-0.0778500
